<?xml version="1.0" standalone="no"?>
<!DOCTYPE svg PUBLIC "-//W3C//DTD SVG 20010904//EN"
 "http://www.w3.org/TR/2001/REC-SVG-20010904/DTD/svg10.dtd">
<svg version="1.0" xmlns="http://www.w3.org/2000/svg"
 width="806.000000pt" height="95.000000pt" viewBox="0 0 806.000000 95.000000"
 preserveAspectRatio="xMidYMid meet">

<g transform="translate(0.000000,95.000000) scale(0.100000,-0.100000)"
fill="#000000" stroke="none">
<path d="M319 784 c-113 -34 -216 -147 -239 -261 -41 -195 84 -388 278 -428
30 -6 32 -5 32 22 0 27 -5 31 -57 47 -75 23 -161 107 -186 181 -39 113 -14
219 72 306 44 45 69 61 114 75 52 16 57 20 57 46 0 32 -5 33 -71 12z"/>
<path d="M460 773 c0 -27 5 -31 58 -47 45 -14 69 -30 114 -76 84 -86 107 -182
72 -300 -22 -76 -108 -161 -187 -186 -52 -16 -57 -20 -57 -47 0 -27 2 -28 33
-22 106 22 203 99 253 201 25 52 29 70 29 149 0 79 -4 97 -29 149 -50 102
-147 179 -253 201 -31 6 -33 5 -33 -22z"/>
<path d="M850 695 l0 -65 30 0 30 0 0 -185 0 -185 -30 0 -30 0 0 -65 0 -65
165 0 165 0 0 65 0 65 -30 0 -30 0 0 185 0 185 30 0 30 0 0 65 0 65 -165 0
-165 0 0 -65z"/>
<path d="M1390 756 c0 -6 359 -597 372 -613 12 -15 222 -19 216 -4 -1 5 -86
146 -188 314 l-185 306 -107 1 c-60 0 -108 -2 -108 -4z"/>
<path d="M1810 622 l0 -137 85 -140 85 -139 0 277 0 277 -85 0 -85 0 0 -138z"/>
<path d="M2252 697 l-62 -63 0 -190 0 -190 63 -62 c54 -54 68 -62 100 -62 l37
0 0 315 0 315 -38 0 c-33 0 -45 -8 -100 -63z"/>
<path d="M2430 700 l0 -59 68 -3 67 -3 3 -62 3 -63 99 0 100 0 0 63 0 63 -63
62 -63 62 -107 0 -107 0 0 -60z"/>
<path d="M2960 695 l0 -65 35 0 35 0 -2 -182 -3 -183 -33 -3 -33 -3 3 -62 3
-62 165 0 165 0 3 62 3 62 -33 3 -33 3 -3 183 -2 182 35 0 35 0 0 65 0 65
-170 0 -170 0 0 -65z"/>
<path d="M3500 445 l0 -315 100 0 100 0 0 315 0 315 -100 0 -100 0 0 -315z"/>
<path d="M3740 700 l0 -59 78 -3 77 -3 3 -187 2 -188 -80 0 -80 0 0 -65 0 -65
118 0 118 0 62 63 62 63 0 190 0 190 -63 62 -63 62 -117 0 -117 0 0 -60z"/>
<path d="M4300 445 l0 -315 100 0 100 0 0 130 0 130 100 0 100 0 0 60 0 60
-100 0 -100 0 0 125 0 125 -100 0 -100 0 0 -315z"/>
<path d="M4540 700 l0 -60 65 0 65 0 0 -30 0 -30 95 0 95 0 0 90 0 90 -160 0
-160 0 0 -60z"/>
<path d="M5072 751 c2 -5 86 -146 188 -315 l185 -306 108 0 c60 0 107 4 105 9
-1 4 -86 146 -188 314 l-185 306 -108 1 c-60 0 -107 -4 -105 -9z"/>
<path d="M5490 623 l0 -137 57 -96 c31 -52 69 -115 85 -139 l28 -45 0 277 0
277 -85 0 -85 0 0 -137z"/>
<path d="M5842 693 l3 -68 270 0 270 0 3 68 3 67 -276 0 -276 0 3 -67z"/>
<path d="M6612 697 l-62 -63 0 -191 0 -191 68 -61 67 -61 75 2 75 3 3 63 3 62
-41 0 -40 0 0 184 0 185 38 3 37 3 3 63 3 62 -83 0 -84 0 -62 -63z"/>
<path d="M6872 698 l3 -63 38 -3 37 -3 0 -185 0 -184 -40 0 -41 0 3 -62 3 -63
77 -3 76 -3 66 62 66 61 0 192 0 192 -63 62 -63 62 -82 0 -83 0 3 -62z"/>
<path d="M7360 445 l0 -315 100 0 100 0 0 315 0 315 -100 0 -100 0 0 -315z"/>
<path d="M7600 700 l0 -60 75 0 75 0 0 -100 0 -100 -75 0 -75 0 0 -60 0 -60
36 0 c35 0 36 -1 80 -95 l45 -95 110 0 110 0 -52 97 c-62 116 -65 121 -81 105
-14 -14 -174 -17 -182 -3 -6 10 59 21 148 26 54 3 63 7 102 46 l44 43 0 96 0
96 -63 62 -63 62 -117 0 -117 0 0 -60z"/>
<path d="M5062 415 l3 -280 88 -3 87 -3 0 140 0 139 -81 134 c-45 73 -86 137
-91 143 -5 5 -7 -110 -6 -270z"/>
<path d="M330 659 c-70 -32 -110 -79 -134 -156 -7 -20 -4 -23 22 -23 26 0 33
7 52 45 34 70 111 106 195 91 43 -8 103 -59 122 -103 11 -27 19 -33 43 -33 35
0 35 -1 15 47 -54 129 -193 187 -315 132z"/>
<path d="M1390 407 l0 -277 85 0 85 0 0 139 0 140 -81 133 c-45 73 -83 135
-85 137 -2 2 -4 -120 -4 -272z"/>
<path d="M6010 360 l0 -230 105 0 105 0 0 230 0 230 -105 0 -105 0 0 -230z"/>
<path d="M344 526 c-29 -29 -34 -41 -34 -81 0 -40 5 -52 34 -81 29 -29 41 -34
81 -34 40 0 52 5 81 34 29 29 34 41 34 81 0 40 -5 52 -34 81 -29 29 -41 34
-81 34 -40 0 -52 -5 -81 -34z m124 -39 c17 -13 15 -72 -2 -86 -24 -20 -79 -9
-92 18 -30 59 40 110 94 68z"/>
<path d="M190 405 c0 -3 7 -22 15 -42 26 -61 65 -104 119 -129 127 -59 265 -3
321 129 20 48 20 47 -15 47 -24 0 -32 -6 -44 -32 -60 -143 -261 -143 -322 0
-12 26 -20 32 -44 32 -17 0 -30 -2 -30 -5z"/>
<path d="M2570 305 l0 -45 -70 0 -70 0 0 -65 0 -65 108 0 108 0 62 63 c58 59
62 65 62 110 l0 47 -100 0 -100 0 0 -45z"/>
<path d="M4660 290 l0 -30 -60 0 -60 0 0 -65 0 -65 160 0 160 0 0 95 0 95
-100 0 -100 0 0 -30z"/>
</g>
</svg>
